<?xml version="1.0" standalone="no"?>
<!DOCTYPE svg PUBLIC "-//W3C//DTD SVG 20010904//EN"
 "http://www.w3.org/TR/2001/REC-SVG-20010904/DTD/svg10.dtd">
<svg version="1.0" xmlns="http://www.w3.org/2000/svg"
 width="429.000000pt" height="162.000000pt" viewBox="0 0 429.000000 162.000000"
 preserveAspectRatio="xMidYMid meet">

<g transform="translate(0.000000,162.000000) scale(0.100000,-0.100000)"
fill="#000000" stroke="none">
<path d="M2784 1381 c-46 -21 -90 -76 -136 -169 -22 -44 -41 -68 -62 -79 -50
-25 -96 -63 -96 -79 0 -22 19 -17 57 16 45 40 56 38 36 -5 -12 -25 -23 -35
-40 -35 -30 0 -50 -39 -34 -67 8 -17 2 -32 -40 -91 -27 -39 -54 -74 -59 -77
-6 -4 -10 -15 -10 -26 0 -16 7 -19 42 -19 35 0 47 6 79 40 20 21 50 62 65 89
16 27 38 54 51 60 12 6 40 27 62 47 l41 36 0 -31 c0 -89 115 -94 178 -9 7 10
26 18 42 18 16 0 32 5 35 10 12 19 25 10 25 -18 0 -46 25 -72 71 -72 32 0 47
7 83 40 24 22 51 40 60 40 10 0 26 5 37 10 17 10 19 7 19 -28 0 -68 46 -83
103 -33 l33 30 11 -30 c20 -53 92 -33 157 43 49 57 49 93 0 47 -48 -45 -41 -6
22 127 35 75 64 146 64 158 0 13 -9 31 -20 41 -26 23 -31 18 -86 -78 -31 -56
-45 -71 -60 -68 -72 13 -108 -7 -190 -110 -56 -70 -82 -88 -69 -46 24 77 28
108 17 132 -34 74 -146 18 -260 -129 -31 -40 -48 -23 -27 27 21 51 19 93 -6
118 -43 43 -123 0 -222 -119 -54 -66 -93 -100 -102 -90 -2 2 11 36 28 77 29
69 35 76 98 116 36 24 76 59 88 78 27 44 28 102 2 117 -27 14 -39 13 -87 -9z
m46 -54 c0 -34 -56 -106 -83 -107 -7 0 37 94 55 118 16 19 28 14 28 -11z m397
-202 c-6 -22 -18 -36 -33 -39 -19 -5 -24 -13 -24 -39 0 -34 -15 -57 -37 -57
-33 0 -2 94 53 159 20 24 29 29 39 21 10 -8 10 -19 2 -45z m-267 36 c0 -30
-24 -70 -46 -75 -20 -6 -24 -12 -22 -39 2 -40 -7 -57 -33 -57 -12 0 -19 7 -19
20 0 23 44 116 68 143 15 17 52 24 52 8z m540 -19 c0 -25 -54 -108 -79 -122
-18 -9 -21 -8 -21 12 0 25 19 57 58 101 30 31 42 34 42 9z"/>
<path d="M1345 1236 c-15 -22 -20 -23 -46 -14 -43 15 -109 -13 -145 -60 -36
-48 -123 -136 -129 -130 -2 2 7 26 20 53 29 60 33 120 8 129 -43 17 -113 -84
-113 -164 0 -49 -20 -80 -53 -80 -25 0 -21 23 14 78 36 58 35 87 -1 87 -18 0
-30 -10 -47 -40 -12 -22 -23 -50 -23 -62 0 -12 -9 -27 -20 -33 -36 -20 -33 13
9 94 45 85 48 98 26 116 -26 21 -68 -6 -136 -86 -35 -41 -66 -74 -69 -74 -12
0 -42 102 -34 110 5 5 20 10 34 12 17 2 26 10 28 25 5 31 -35 40 -79 18 -40
-20 -179 -154 -179 -172 0 -25 19 -12 70 47 29 33 55 60 58 60 4 0 5 -22 4
-50 -4 -49 -5 -50 -36 -50 -45 0 -76 -25 -76 -61 0 -86 145 -94 180 -9 7 16
18 30 26 30 7 0 30 20 50 45 21 24 40 43 42 41 2 -2 -8 -27 -22 -55 -30 -58
-32 -83 -10 -105 22 -23 56 -20 96 8 l35 23 9 -21 c15 -36 57 -32 102 8 22 20
49 36 61 36 12 0 33 7 46 16 l25 16 0 -39 c0 -21 5 -44 12 -51 21 -21 66 -13
102 18 34 30 35 30 38 9 4 -29 29 -43 61 -35 28 7 113 86 194 181 42 50 52 57
58 42 5 -12 -6 -38 -34 -80 -56 -86 -54 -147 4 -147 35 0 110 56 155 116 23
31 44 54 46 51 3 -2 -12 -36 -32 -75 -36 -72 -37 -92 -6 -92 25 1 54 27 121
113 34 42 66 77 72 77 6 0 9 -6 6 -12 -39 -89 -56 -139 -51 -152 11 -28 66
-20 110 17 78 65 75 63 68 28 -14 -69 55 -93 118 -41 35 29 37 30 40 9 4 -29
29 -43 59 -36 29 7 139 113 139 133 0 22 -14 17 -45 -16 -49 -51 -52 -20 -6
69 22 44 41 86 41 94 0 7 -10 24 -22 37 l-22 23 -22 -27 c-20 -23 -26 -25 -48
-15 -46 21 -105 -11 -174 -95 -62 -75 -117 -123 -126 -108 -2 4 11 42 29 83
38 82 42 101 21 118 -19 16 -54 -2 -116 -57 l-46 -40 4 34 c4 33 -18 74 -38
74 -4 0 -34 -35 -65 -77 -89 -120 -125 -154 -125 -120 0 6 14 44 31 84 33 73
33 109 2 99 -67 -20 -73 -19 -73 7 0 29 -23 41 -51 27 -21 -12 -34 -49 -25
-77 10 -30 -123 -179 -138 -155 -3 5 13 47 35 92 43 91 46 115 12 137 -20 13
-23 12 -38 -11z m-55 -100 c0 -25 -52 -101 -82 -120 -46 -28 -25 45 30 106 40
44 52 47 52 14z m930 6 c0 -37 -75 -132 -104 -132 -17 0 -1 44 35 93 40 57 69
73 69 39z m-1692 -134 c-7 -21 -36 -34 -49 -21 -6 6 -8 16 -5 22 10 15 59 14
54 -1z"/>
<path d="M2410 580 l0 -100 44 0 c35 0 48 5 60 22 35 49 7 108 -50 108 -32 0
-34 2 -34 35 0 19 -4 35 -10 35 -6 0 -10 -40 -10 -100z m84 4 c34 -33 7 -98
-38 -92 -17 2 -22 11 -24 42 -2 21 -1 44 2 52 7 19 41 18 60 -2z"/>
<path d="M3180 580 c0 -60 4 -100 10 -100 6 0 10 24 10 54 0 46 3 54 21 59 39
10 49 -2 49 -59 0 -30 5 -54 10 -54 12 0 13 100 1 119 -6 9 -21 12 -45 9 -36
-4 -36 -4 -36 34 0 21 -4 38 -10 38 -6 0 -10 -40 -10 -100z"/>
<path d="M350 660 c0 -5 7 -10 15 -10 8 0 15 5 15 10 0 6 -7 10 -15 10 -8 0
-15 -4 -15 -10z"/>
<path d="M3510 660 c0 -5 5 -10 10 -10 6 0 10 5 10 10 0 6 -4 10 -10 10 -5 0
-10 -4 -10 -10z"/>
<path d="M1450 631 c0 -11 -6 -22 -12 -24 -10 -4 -10 -6 0 -6 7 -1 12 -17 12
-45 0 -64 7 -76 44 -75 29 1 29 1 6 8 -22 6 -25 13 -28 58 -3 47 -1 52 20 56
l23 4 -22 2 c-16 1 -23 7 -23 21 0 11 -4 20 -10 20 -5 0 -10 -9 -10 -19z"/>
<path d="M2859 628 c-2 -54 4 -114 12 -130 6 -11 21 -18 37 -18 l27 0 -25 13
c-21 11 -25 20 -25 57 0 39 3 45 25 51 l25 7 -27 1 c-21 1 -28 6 -28 21 0 28
-20 25 -21 -2z"/>
<path d="M207 592 c-21 -23 -22 -76 -1 -96 8 -9 29 -16 45 -16 22 0 29 -5 29
-19 0 -24 -18 -38 -55 -44 -25 -3 -23 -4 11 -6 57 -2 67 14 72 115 l5 84 -45
0 c-31 0 -50 -6 -61 -18z m68 -47 c0 -38 -4 -50 -16 -53 -24 -4 -49 25 -49 57
0 33 18 53 45 49 17 -3 20 -11 20 -53z"/>
<path d="M360 545 c0 -37 4 -65 10 -65 6 0 10 28 10 65 0 37 -4 65 -10 65 -6
0 -10 -28 -10 -65z"/>
<path d="M420 600 c0 -23 43 -121 52 -118 11 4 48 94 48 116 0 26 -18 1 -30
-43 -7 -24 -16 -43 -20 -40 -4 2 -13 25 -20 50 -11 40 -30 62 -30 35z"/>
<path d="M577 592 c-20 -22 -22 -83 -5 -100 14 -14 88 -16 88 -3 0 5 -9 7 -19
4 -24 -6 -61 13 -61 32 0 11 12 15 45 15 48 0 56 11 35 51 -14 25 -61 25 -83
1z m61 -4 c23 -23 13 -38 -23 -38 -22 0 -35 5 -35 13 0 16 20 37 35 37 6 0 16
-5 23 -12z"/>
<path d="M780 602 c0 -5 11 -36 25 -70 21 -51 23 -65 13 -87 -9 -21 -6 -47 6
-34 9 11 75 193 72 197 -10 10 -24 -11 -36 -53 -7 -25 -16 -45 -20 -45 -5 0
-16 23 -25 50 -9 28 -21 50 -26 50 -5 0 -9 -4 -9 -8z"/>
<path d="M947 592 c-22 -25 -21 -75 1 -95 23 -21 62 -22 87 -3 22 16 26 76 6
100 -18 22 -74 20 -94 -2z m80 -18 c15 -24 15 -29 2 -53 -8 -14 -22 -27 -31
-29 -41 -8 -67 76 -30 97 27 16 40 13 59 -15z"/>
<path d="M1100 556 c0 -64 13 -78 69 -74 l41 3 0 63 c0 35 -4 62 -10 62 -5 0
-10 -24 -10 -54 0 -46 -3 -56 -20 -61 -33 -11 -50 12 -50 66 0 27 -4 49 -10
49 -5 0 -10 -24 -10 -54z"/>
<path d="M1260 543 c0 -35 4 -63 10 -63 6 0 10 24 10 54 0 46 3 56 20 61 11 3
24 3 30 0 5 -3 10 -1 10 4 0 6 -18 10 -40 9 l-40 -1 0 -64z"/>
<path d="M1550 564 c0 -70 12 -85 66 -82 l44 3 0 63 c0 35 -4 62 -10 62 -5 0
-10 -24 -10 -54 0 -47 -3 -56 -22 -62 -30 -9 -48 19 -48 73 0 24 -4 43 -10 43
-5 0 -10 -21 -10 -46z"/>
<path d="M1720 543 c0 -35 4 -63 10 -63 6 0 10 24 10 54 0 57 11 71 43 54 13
-6 17 -21 17 -58 0 -28 5 -50 10 -50 6 0 10 24 10 54 0 41 4 55 16 60 28 11
44 -13 44 -65 0 -27 5 -49 10 -49 11 0 13 99 2 116 -4 8 -38 12 -89 11 l-83 0
0 -64z"/>
<path d="M1950 543 c0 -35 4 -63 10 -63 6 0 10 22 10 50 0 37 4 52 18 59 33
17 52 -5 52 -59 0 -30 4 -50 11 -50 7 0 10 20 7 55 -3 47 0 55 16 59 32 8 46
-12 46 -65 0 -27 5 -49 10 -49 13 0 13 86 0 110 -9 16 -22 18 -95 18 l-85 -1
0 -64z"/>
<path d="M2200 539 c28 -67 29 -72 14 -101 -12 -23 -13 -29 -3 -26 8 3 30 48
51 102 20 53 31 95 25 93 -7 -2 -21 -28 -31 -57 l-20 -54 -20 57 c-12 31 -26
57 -33 57 -8 0 -1 -25 17 -71z"/>
<path d="M2587 592 c-10 -10 -17 -35 -17 -55 0 -42 20 -58 72 -56 l33 1 -31 7
c-41 10 -54 19 -54 37 0 10 12 14 45 14 48 0 56 11 35 51 -14 25 -61 25 -83 1z
m61 -4 c23 -23 13 -38 -23 -38 -22 0 -35 5 -35 13 0 16 20 37 35 37 6 0 16 -5
23 -12z"/>
<path d="M2730 595 c-18 -22 -6 -42 35 -59 19 -8 35 -19 35 -25 0 -14 -36 -24
-60 -16 -11 4 -20 2 -20 -4 0 -17 76 -13 90 4 18 22 6 42 -35 60 -44 18 -41
38 6 46 l34 6 -36 2 c-22 0 -42 -5 -49 -14z"/>
<path d="M3056 594 c-19 -18 -21 -85 -4 -102 7 -7 28 -11 48 -11 27 1 29 3 10
6 -37 7 -50 22 -50 59 0 35 28 61 56 50 8 -3 14 -1 14 4 0 16 -57 11 -74 -6z"/>
<path d="M3357 592 c-24 -26 -22 -88 2 -102 30 -15 66 -12 84 8 21 23 22 76 1
96 -21 22 -67 20 -87 -2z m64 -2 c13 -7 19 -21 19 -44 0 -44 -22 -63 -55 -48
-41 19 -30 98 13 102 2 0 12 -5 23 -10z"/>
<path d="M3510 545 c0 -37 4 -65 10 -65 6 0 10 28 10 65 0 37 -4 65 -10 65 -6
0 -10 -28 -10 -65z"/>
<path d="M3589 594 c-7 -9 -13 -31 -13 -49 0 -46 19 -65 63 -64 30 2 32 3 8 6
-33 5 -61 44 -52 73 8 24 41 44 61 36 8 -3 14 -1 14 4 0 16 -67 11 -81 -6z"/>
<path d="M3726 588 c-37 -52 -7 -109 55 -107 l34 1 -34 8 c-31 7 -50 24 -51
43 0 4 20 7 45 7 47 0 55 12 39 54 -10 25 -70 21 -88 -6z m72 -16 c3 -19 -1
-22 -32 -22 -40 0 -43 5 -19 32 22 24 47 19 51 -10z"/>
</g>
</svg>
