<?xml version="1.0" standalone="no"?>
<!DOCTYPE svg PUBLIC "-//W3C//DTD SVG 20010904//EN"
 "http://www.w3.org/TR/2001/REC-SVG-20010904/DTD/svg10.dtd">
<svg version="1.0" xmlns="http://www.w3.org/2000/svg"
 width="453.000000pt" height="181.000000pt" viewBox="0 0 453.000000 181.000000"
 preserveAspectRatio="xMidYMid meet">

<g transform="translate(0.000000,181.000000) scale(0.100000,-0.100000)"
fill="#000000" stroke="none">
<path d="M2820 1511 c-5 -11 -10 -42 -10 -70 0 -44 -3 -51 -20 -51 -13 0 -20
-7 -20 -20 0 -13 7 -20 20 -20 19 0 20 -7 20 -105 0 -98 -1 -105 -20 -105 -11
0 -20 -7 -20 -15 0 -12 14 -15 65 -15 51 0 65 3 65 15 0 9 -9 15 -25 15 l-25
0 0 105 0 105 25 0 c18 0 25 5 25 20 0 15 -7 20 -25 20 -24 0 -25 3 -25 55 0
30 3 54 8 54 30 -5 51 2 46 16 -9 23 -71 20 -84 -4z"/>
<path d="M3600 1516 c0 -7 9 -16 20 -19 17 -4 20 -14 20 -56 l0 -51 -65 0
c-97 0 -105 -12 -105 -146 0 -105 9 -144 33 -144 7 0 39 16 71 35 32 19 60 35
62 35 2 0 4 -13 4 -30 0 -28 2 -30 40 -30 43 0 57 23 20 33 -19 5 -20 14 -20
196 l0 191 -40 0 c-27 0 -40 -4 -40 -14z m40 -235 l0 -69 -61 -36 c-33 -20
-62 -36 -64 -36 -1 0 -3 47 -4 105 l-2 105 66 0 65 0 0 -69z"/>
<path d="M777 1378 c-15 -12 -22 -42 -19 -80 1 -9 34 -36 72 -59 60 -37 70
-48 70 -72 0 -28 -1 -28 -52 -25 -46 3 -53 6 -56 26 -6 40 -32 26 -32 -18 l0
-40 78 0 c86 0 97 4 105 40 9 41 -6 61 -78 109 -49 33 -69 53 -70 69 -2 20 3
22 52 22 46 0 53 -3 53 -20 0 -13 7 -20 20 -20 17 0 20 7 20 40 l0 40 -73 0
c-43 0 -80 -5 -90 -12z"/>
<path d="M990 1370 c0 -11 6 -20 13 -20 8 0 21 -41 37 -117 l25 -118 31 -3 32
-3 17 78 c9 43 22 98 28 123 l13 45 22 -105 c33 -147 29 -140 62 -140 26 0 29
4 39 51 35 160 43 189 57 189 8 0 14 9 14 20 0 17 -7 20 -45 20 -38 0 -45 -3
-45 -20 0 -11 6 -20 13 -20 11 0 10 -19 -6 -92 -11 -51 -23 -97 -27 -101 -4
-4 -18 45 -31 110 -25 118 -25 118 -55 121 l-30 3 -23 -108 c-13 -59 -27 -114
-31 -121 -4 -8 -16 27 -28 85 -17 82 -19 99 -7 106 27 14 5 37 -36 37 -32 0
-39 -3 -39 -20z"/>
<path d="M1420 1355 c0 -37 25 -50 36 -20 5 11 21 15 60 15 46 0 54 -3 54 -18
0 -23 -17 -38 -98 -86 l-63 -38 3 -47 3 -46 118 -3 c95 -2 117 0 117 12 0 7
-9 16 -20 19 -18 5 -20 14 -20 116 0 131 0 131 -114 131 l-76 0 0 -35z m150
-155 l0 -60 -60 0 c-59 0 -60 1 -60 28 1 22 11 33 53 59 29 18 55 32 60 33 4
0 7 -27 7 -60z"/>
<path d="M1702 1373 c2 -10 10 -17 16 -15 9 1 12 -28 12 -108 0 -91 -3 -110
-15 -110 -8 0 -15 -7 -15 -15 0 -11 12 -15 50 -15 36 0 50 4 50 14 0 8 -6 16
-13 19 -10 4 -13 26 -13 78 l1 73 40 28 c50 34 55 34 55 3 0 -18 5 -25 20 -25
16 0 20 7 20 34 0 19 -7 39 -16 47 -14 12 -24 10 -65 -14 -59 -33 -61 -33 -57
-4 3 19 -2 22 -35 25 -33 3 -38 1 -35 -15z"/>
<path d="M1962 1373 c2 -10 10 -18 18 -18 12 0 16 -20 18 -103 3 -98 2 -104
-17 -109 -12 -3 -21 -12 -21 -19 0 -10 14 -14 49 -14 50 0 76 15 47 26 -13 5
-16 22 -16 79 l0 73 51 32 c28 17 54 28 58 25 3 -4 6 -49 7 -102 1 -71 -2 -96
-13 -100 -7 -3 -13 -11 -13 -19 0 -10 14 -14 50 -14 38 0 50 4 50 15 0 8 -7
15 -15 15 -12 0 -15 19 -15 113 0 149 -15 165 -108 107 l-47 -29 -3 29 c-3 28
-6 30 -43 30 -33 0 -40 -3 -37 -17z"/>
<path d="M2290 1355 c0 -24 5 -35 15 -35 8 0 15 7 15 15 0 12 13 15 60 15 54
0 60 -2 60 -20 0 -15 -23 -35 -79 -71 -44 -27 -81 -56 -84 -63 -3 -7 -2 -28 2
-47 l7 -34 112 -3 c95 -2 112 0 112 13 0 8 -7 15 -15 15 -12 0 -15 19 -15 115
0 136 1 135 -114 135 l-76 0 0 -35z m148 -152 l-3 -58 -56 -3 c-58 -3 -76 9
-63 41 5 13 102 77 117 77 4 0 7 -26 5 -57z"/>
<path d="M2971 1381 c-18 -11 -16 -251 2 -263 20 -13 162 -9 175 4 8 8 12 51
12 130 0 106 -2 118 -19 128 -24 12 -150 13 -170 1z m149 -136 l0 -105 -60 0
-60 0 0 105 0 105 60 0 60 0 0 -105z"/>
<path d="M3230 1380 c-11 -7 -16 -35 -18 -119 -5 -149 -3 -151 101 -151 51 0
88 5 95 12 19 19 16 232 -4 252 -18 18 -148 23 -174 6z m150 -135 l0 -106 -62
3 -62 3 -3 103 -2 102 64 0 65 0 0 -105z"/>
<path d="M2754 848 c-3 -5 0 -7 8 -6 8 2 12 -4 10 -16 -2 -11 1 -15 7 -11 17
10 13 42 -4 42 -9 0 -18 -4 -21 -9z"/>
<path d="M3525 850 c-4 -6 -1 -9 7 -8 7 2 12 -3 11 -9 -2 -7 2 -13 7 -13 12 0
12 3 4 24 -7 18 -20 21 -29 6z"/>
<path d="M495 820 c3 -5 8 -10 11 -10 2 0 4 5 4 10 0 6 -5 10 -11 10 -5 0 -7
-4 -4 -10z"/>
<path d="M3860 819 c0 -5 5 -7 10 -4 6 3 10 8 10 11 0 2 -4 4 -10 4 -5 0 -10
-5 -10 -11z"/>
<path d="M2776 784 c-4 -9 -4 -19 -1 -22 2 -3 7 3 11 12 4 9 4 19 1 22 -2 3
-7 -3 -11 -12z"/>
<path d="M317 773 c-10 -10 -8 -103 2 -103 5 0 8 21 8 48 l-2 47 40 0 c37 0
40 -2 39 -27 -1 -16 2 -28 6 -28 4 0 8 12 8 26 0 15 5 30 12 34 6 4 -15 8 -47
9 -33 0 -63 -2 -66 -6z"/>
<path d="M488 767 c7 -8 9 -17 5 -20 -3 -4 -1 -7 5 -7 18 0 14 27 -4 34 -13 5
-14 4 -6 -7z"/>
<path d="M810 771 c0 -6 4 -13 10 -16 6 -3 7 1 4 9 -7 18 -14 21 -14 7z"/>
<path d="M991 763 c7 -12 15 -20 18 -17 3 2 -3 12 -13 22 -17 16 -18 16 -5 -5z"/>
<path d="M1079 767 c6 -8 8 -16 5 -20 -3 -3 -1 -14 5 -24 10 -17 10 -16 11 4
0 29 -10 53 -22 53 -7 0 -6 -5 1 -13z"/>
<path d="M1150 769 c0 -5 5 -7 10 -4 6 3 10 8 10 11 0 2 -4 4 -10 4 -5 0 -10
-5 -10 -11z"/>
<path d="M1226 767 c3 -10 9 -15 12 -12 3 3 0 11 -7 18 -10 9 -11 8 -5 -6z"/>
<path d="M1285 770 c4 -6 11 -8 16 -5 14 9 11 15 -7 15 -8 0 -12 -5 -9 -10z"/>
<path d="M1380 769 c0 -5 5 -7 10 -4 6 3 10 8 10 11 0 2 -4 4 -10 4 -5 0 -10
-5 -10 -11z"/>
<path d="M1465 770 c3 -5 8 -10 11 -10 2 0 4 5 4 10 0 6 -5 10 -11 10 -5 0 -7
-4 -4 -10z"/>
<path d="M1750 769 c0 -5 5 -7 10 -4 6 3 10 8 10 11 0 2 -4 4 -10 4 -5 0 -10
-5 -10 -11z"/>
<path d="M1815 770 c3 -5 11 -10 16 -10 6 0 7 5 4 10 -3 6 -11 10 -16 10 -6 0
-7 -4 -4 -10z"/>
<path d="M2001 767 c-1 -25 24 -32 51 -13 29 21 39 20 32 -1 -5 -15 -4 -16 5
-3 17 24 -5 35 -33 16 -32 -21 -43 -20 -49 2 -4 16 -5 16 -6 -1z"/>
<path d="M2121 759 c-13 -10 -19 -19 -15 -19 13 1 48 29 43 34 -2 2 -15 -4
-28 -15z"/>
<path d="M2240 770 c20 -13 33 -13 25 0 -3 6 -14 10 -23 10 -15 0 -15 -2 -2
-10z"/>
<path d="M2334 752 c2 -18 7 -36 11 -40 5 -4 5 1 2 11 -4 10 -1 17 6 17 7 0
22 7 33 16 18 14 18 15 -4 4 -20 -10 -26 -8 -38 7 -12 16 -13 15 -10 -15z"/>
<path d="M2413 732 c-1 -45 -1 -46 8 -14 5 18 6 39 2 47 -6 9 -9 -2 -10 -33z"/>
<path d="M2592 760 c7 -10 14 -18 15 -16 6 6 -9 36 -18 36 -5 0 -4 -9 3 -20z"/>
<path d="M2845 771 c-4 -7 0 -8 11 -4 14 5 16 2 12 -15 -4 -12 -2 -22 4 -22
13 0 6 43 -9 47 -6 2 -14 -1 -18 -6z"/>
<path d="M2925 770 c-3 -6 1 -7 9 -4 18 7 21 14 7 14 -6 0 -13 -4 -16 -10z"/>
<path d="M2990 776 c0 -2 7 -7 16 -10 8 -3 12 -2 9 4 -6 10 -25 14 -25 6z"/>
<path d="M3190 769 c0 -5 5 -7 10 -4 6 3 10 8 10 11 0 2 -4 4 -10 4 -5 0 -10
-5 -10 -11z"/>
<path d="M3222 768 c-7 -7 -12 -17 -12 -22 0 -6 5 -3 11 7 6 9 15 14 21 11 7
-4 8 -2 4 4 -9 15 -9 15 -24 0z"/>
<path d="M3451 777 c2 -1 12 -9 22 -16 15 -12 17 -12 11 3 -3 9 -13 16 -22 16
-8 0 -13 -1 -11 -3z"/>
<path d="M3547 768 c-2 -7 -1 -22 3 -33 6 -16 8 -13 7 13 0 35 -2 39 -10 20z"/>
<path d="M3631 742 c4 -20 6 -48 3 -62 l-4 -25 10 24 c11 24 4 87 -10 96 -4 3
-4 -12 1 -33z"/>
<path d="M3707 773 c-7 -12 -2 -102 6 -109 4 -4 5 15 3 42 -1 27 2 55 7 62 6
8 6 12 -1 12 -6 0 -13 -3 -15 -7z"/>
<path d="M4010 771 c0 -6 4 -12 8 -15 5 -3 9 1 9 9 0 8 -4 15 -9 15 -4 0 -8
-4 -8 -9z"/>
<path d="M4113 773 c9 -2 25 -2 35 0 9 3 1 5 -18 5 -19 0 -27 -2 -17 -5z"/>
<path d="M1500 757 c-18 -9 -26 -21 -28 -44 -2 -20 1 -33 8 -33 7 0 9 8 5 19
-4 13 3 27 22 45 31 29 30 30 -7 13z"/>
<path d="M3050 760 c0 -5 5 -10 11 -10 5 0 7 5 4 10 -3 6 -8 10 -11 10 -2 0
-4 -4 -4 -10z"/>
<path d="M3584 754 c-18 -14 -18 -15 4 -4 12 6 22 13 22 15 0 8 -5 6 -26 -11z"/>
<path d="M1910 750 c0 -5 5 -10 10 -10 6 0 10 5 10 10 0 6 -4 10 -10 10 -5 0
-10 -4 -10 -10z"/>
<path d="M2278 753 c-10 -2 -18 -9 -18 -14 0 -6 8 -5 20 1 11 6 20 13 20 15 0
3 -1 4 -2 4 -2 -1 -11 -3 -20 -6z"/>
<path d="M2810 750 c-9 -6 -10 -10 -3 -10 6 0 15 5 18 10 8 12 4 12 -15 0z"/>
<path d="M4161 744 c0 -11 3 -14 6 -6 3 7 2 16 -1 19 -3 4 -6 -2 -5 -13z"/>
<path d="M1387 743 c-10 -10 -8 -33 2 -33 6 0 9 9 8 20 -1 23 -1 22 -10 13z"/>
<path d="M1832 730 c0 -14 2 -19 5 -12 2 6 2 18 0 25 -3 6 -5 1 -5 -13z"/>
<path d="M2776 724 c-4 -15 -3 -30 1 -35 4 -4 9 8 10 27 2 41 -2 44 -11 8z"/>
<path d="M2920 736 c0 -23 16 -27 17 -5 1 10 -2 19 -8 19 -5 0 -9 -6 -9 -14z"/>
<path d="M3011 734 c0 -11 3 -14 6 -6 3 7 2 16 -1 19 -3 4 -6 -2 -5 -13z"/>
<path d="M3790 739 c0 -5 5 -7 10 -4 6 3 10 8 10 11 0 2 -4 4 -10 4 -5 0 -10
-5 -10 -11z"/>
<path d="M3864 730 c0 -11 4 -20 8 -20 4 0 8 9 8 20 0 11 -4 20 -8 20 -4 0 -8
-9 -8 -20z"/>
<path d="M3935 740 c-3 -5 -1 -18 4 -27 9 -16 10 -14 11 10 0 28 -5 34 -15 17z"/>
<path d="M650 730 c0 -5 5 -10 11 -10 5 0 7 5 4 10 -3 6 -8 10 -11 10 -2 0 -4
-4 -4 -10z"/>
<path d="M731 724 c0 -11 3 -14 6 -6 3 7 2 16 -1 19 -3 4 -6 -2 -5 -13z"/>
<path d="M3054 728 c-4 -7 -3 -8 4 -4 7 4 12 4 12 -1 0 -4 14 -16 30 -25 40
-23 38 -16 -4 16 -24 18 -37 23 -42 14z"/>
<path d="M490 720 c0 -5 5 -10 11 -10 5 0 7 5 4 10 -3 6 -8 10 -11 10 -2 0 -4
-4 -4 -10z"/>
<path d="M793 718 c-13 -6 -23 -15 -23 -20 0 -5 11 -1 25 8 37 24 35 30 -2 12z"/>
<path d="M2000 720 c0 -5 5 -10 11 -10 5 0 7 5 4 10 -3 6 -8 10 -11 10 -2 0
-4 -4 -4 -10z"/>
<path d="M2091 714 c0 -11 3 -14 6 -6 3 7 2 16 -1 19 -3 4 -6 -2 -5 -13z"/>
<path d="M3390 720 c0 -5 5 -10 10 -10 6 0 10 5 10 10 0 6 -4 10 -10 10 -5 0
-10 -4 -10 -10z"/>
<path d="M4111 704 c-19 -13 -29 -24 -23 -24 6 0 24 11 39 25 35 31 28 31 -16
-1z"/>
<path d="M2160 710 c0 -5 5 -10 10 -10 6 0 10 5 10 10 0 6 -4 10 -10 10 -5 0
-10 -4 -10 -10z"/>
<path d="M2257 706 c-4 -10 -5 -21 -2 -24 9 -9 17 6 13 25 -3 17 -4 17 -11 -1z"/>
<path d="M651 694 c0 -11 3 -14 6 -6 3 7 2 16 -1 19 -3 4 -6 -2 -5 -13z"/>
<path d="M2865 683 c3 -24 0 -35 -13 -42 -16 -10 -16 -10 1 -11 24 0 31 23 18
57 l-11 28 5 -32z"/>
<path d="M2955 699 c-4 -6 -13 -8 -21 -5 -8 3 -14 1 -14 -4 0 -15 26 -12 40 5
7 8 10 15 7 15 -3 0 -9 -5 -12 -11z"/>
<path d="M396 685 c-9 -24 -8 -27 6 -19 8 5 9 0 6 -14 -4 -12 -2 -22 3 -22 11
0 12 41 0 58 -7 11 -10 10 -15 -3z"/>
<path d="M1080 691 c0 -11 -50 -44 -67 -44 -7 0 -13 -4 -13 -9 0 -13 10 -10
56 20 42 26 55 42 34 42 -5 0 -10 -4 -10 -9z"/>
<path d="M1369 672 c-13 -15 -17 -21 -10 -15 11 9 18 10 28 2 9 -8 13 -8 13 0
0 6 -6 11 -12 11 -9 0 -8 3 2 10 8 5 12 11 9 14 -3 3 -16 -6 -30 -22z"/>
<path d="M1825 690 c-3 -5 -1 -10 4 -10 6 0 11 5 11 10 0 6 -2 10 -4 10 -3 0
-8 -4 -11 -10z"/>
<path d="M2330 690 c0 -5 5 -10 11 -10 5 0 7 5 4 10 -3 6 -8 10 -11 10 -2 0
-4 -4 -4 -10z"/>
<path d="M3540 686 c0 -8 4 -17 9 -21 6 -3 9 4 8 15 -1 23 -17 28 -17 6z"/>
<path d="M1733 665 c1 -21 8 -31 22 -33 18 -3 19 -3 3 10 -9 7 -19 22 -21 33
-3 12 -5 8 -4 -10z"/>
<path d="M1890 670 c-14 -11 -31 -20 -39 -20 -8 0 -11 -3 -8 -7 4 -3 18 0 32
7 20 11 27 11 42 -1 17 -13 17 -13 4 4 -13 16 -13 20 0 28 8 5 10 9 4 9 -5 0
-21 -9 -35 -20z"/>
<path d="M2086 673 c-4 -10 0 -23 10 -32 14 -13 15 -13 8 -1 -5 8 -7 23 -6 33
4 22 -4 22 -12 0z"/>
<path d="M2162 686 c4 -5 3 -18 -2 -30 -6 -18 -4 -22 12 -23 16 -2 17 1 8 12
-6 8 -9 19 -6 24 4 5 1 13 -6 17 -7 4 -10 4 -6 0z"/>
<path d="M2571 671 l-25 -19 29 6 c24 4 27 2 21 -14 -4 -10 -3 -15 1 -10 9 9
12 56 3 56 -3 0 -16 -9 -29 -19z"/>
<path d="M3796 677 c3 -10 9 -15 12 -12 3 3 0 11 -7 18 -10 9 -11 8 -5 -6z"/>
<path d="M490 670 c0 -5 5 -10 11 -10 5 0 7 5 4 10 -3 6 -8 10 -11 10 -2 0 -4
-4 -4 -10z"/>
<path d="M731 663 c-1 -12 4 -25 9 -28 12 -7 12 2 0 30 -8 19 -9 19 -9 -2z"/>
<path d="M2410 670 c0 -5 5 -10 11 -10 5 0 7 5 4 10 -3 6 -8 10 -11 10 -2 0
-4 -4 -4 -10z"/>
<path d="M2504 663 c2 -10 11 -19 22 -20 16 -2 16 -1 1 3 -9 3 -15 9 -12 14 3
5 1 11 -4 14 -5 4 -8 -2 -7 -11z"/>
<path d="M3930 666 c0 -8 5 -18 10 -21 6 -3 10 3 10 14 0 12 -4 21 -10 21 -5
0 -10 -6 -10 -14z"/>
<path d="M356 655 c-11 -8 -15 -15 -9 -15 6 0 16 7 23 15 16 19 11 19 -14 0z"/>
<path d="M607 655 c7 -19 35 -16 40 5 4 13 3 13 -7 0 -9 -11 -13 -12 -17 -2
-7 18 -23 15 -16 -3z"/>
<path d="M2250 658 c0 -9 -6 -18 -12 -21 -7 -2 -1 -4 14 -3 22 1 24 4 15 16
-6 8 -13 17 -14 19 -2 2 -3 -3 -3 -11z"/>
<path d="M2333 650 c-11 -16 -10 -18 2 -14 8 4 15 12 15 20 0 19 -3 18 -17 -6z"/>
<path d="M310 651 c0 -6 4 -12 8 -15 5 -3 9 1 9 9 0 8 -4 15 -9 15 -4 0 -8 -4
-8 -9z"/>
<path d="M1092 635 c0 -16 2 -22 5 -12 2 9 2 23 0 30 -3 6 -5 -1 -5 -18z"/>
<path d="M1300 650 c0 -6 7 -10 15 -10 8 0 15 2 15 4 0 2 -7 6 -15 10 -8 3
-15 1 -15 -4z"/>
<path d="M3006 643 c-6 -14 -5 -15 5 -6 7 7 10 15 7 18 -3 3 -9 -2 -12 -12z"/>
<path d="M1150 640 c0 -5 5 -10 11 -10 5 0 7 5 4 10 -3 6 -8 10 -11 10 -2 0
-4 -4 -4 -10z"/>
<path d="M1210 640 c-8 -5 -10 -10 -5 -10 6 0 17 5 25 10 8 5 11 10 5 10 -5 0
-17 -5 -25 -10z"/>
<path d="M2000 646 c0 -2 7 -7 16 -10 8 -3 12 -2 9 4 -6 10 -25 14 -25 6z"/>
<path d="M2766 642 c-3 -5 1 -9 9 -9 8 0 12 4 9 9 -3 4 -7 8 -9 8 -2 0 -6 -4
-9 -8z"/>
<path d="M3050 646 c0 -2 7 -7 16 -10 8 -3 12 -2 9 4 -6 10 -25 14 -25 6z"/>
<path d="M3408 638 c5 -5 16 -8 23 -6 8 3 3 7 -10 11 -17 4 -21 3 -13 -5z"/>
<path d="M3630 646 c0 -2 7 -7 16 -10 8 -3 12 -2 9 4 -6 10 -25 14 -25 6z"/>
<path d="M3700 646 c0 -2 7 -7 16 -10 8 -3 12 -2 9 4 -6 10 -25 14 -25 6z"/>
<path d="M4008 633 c7 -3 16 -2 19 1 4 3 -2 6 -13 5 -11 0 -14 -3 -6 -6z"/>
<path d="M4098 633 c7 -3 16 -2 19 1 4 3 -2 6 -13 5 -11 0 -14 -3 -6 -6z"/>
<path d="M320 595 c0 -5 5 -17 10 -25 5 -8 10 -10 10 -5 0 6 -5 17 -10 25 -5
8 -10 11 -10 5z"/>
<path d="M2594 591 c4 -5 -6 -14 -21 -19 -16 -6 -22 -11 -15 -11 19 -1 52 18
52 29 0 6 -5 10 -11 10 -5 0 -8 -4 -5 -9z"/>
<path d="M1072 575 c-7 -8 -9 -15 -4 -15 5 0 15 7 22 15 16 19 -1 19 -18 0z"/>
<path d="M350 569 c0 -5 5 -7 10 -4 6 3 10 8 10 11 0 2 -4 4 -10 4 -5 0 -10
-5 -10 -11z"/>
<path d="M1020 570 c18 -12 30 -13 30 -2 0 4 -10 9 -22 9 -18 2 -20 0 -8 -7z"/>
</g>
</svg>
